<mxfile host="app.diagrams.net" agent="Mozilla/5.0 (Windows NT 10.0; Win64; x64) AppleWebKit/537.36 (KHTML, like Gecko) Chrome/131.0.0.0 Safari/537.36" version="24.8.6">
  <diagram name="Página-1" id="F-y23PxTb2toMPAbsMeU">
    <mxGraphModel dx="1956" dy="1116" grid="1" gridSize="10" guides="1" tooltips="1" connect="1" arrows="1" fold="1" page="1" pageScale="1" pageWidth="827" pageHeight="1169" math="0" shadow="0">
      <root>
        <mxCell id="0" />
        <mxCell id="1" parent="0" />
        <mxCell id="kt7ekBlPG1MY4KIuGOSw-1" value="Roles" style="shape=table;startSize=30;container=1;collapsible=1;childLayout=tableLayout;fixedRows=1;rowLines=0;fontStyle=1;align=center;resizeLast=1;html=1;" parent="1" vertex="1">
          <mxGeometry x="980" y="260" width="200" height="90" as="geometry" />
        </mxCell>
        <mxCell id="kt7ekBlPG1MY4KIuGOSw-2" value="" style="shape=tableRow;horizontal=0;startSize=0;swimlaneHead=0;swimlaneBody=0;fillColor=none;collapsible=0;dropTarget=0;points=[[0,0.5],[1,0.5]];portConstraint=eastwest;top=0;left=0;right=0;bottom=1;" parent="kt7ekBlPG1MY4KIuGOSw-1" vertex="1">
          <mxGeometry y="30" width="200" height="30" as="geometry" />
        </mxCell>
        <mxCell id="kt7ekBlPG1MY4KIuGOSw-3" value="PK" style="shape=partialRectangle;connectable=0;fillColor=none;top=0;left=0;bottom=0;right=0;fontStyle=1;overflow=hidden;whiteSpace=wrap;html=1;" parent="kt7ekBlPG1MY4KIuGOSw-2" vertex="1">
          <mxGeometry width="30" height="30" as="geometry">
            <mxRectangle width="30" height="30" as="alternateBounds" />
          </mxGeometry>
        </mxCell>
        <mxCell id="kt7ekBlPG1MY4KIuGOSw-4" value="CODIGO_ROL" style="shape=partialRectangle;connectable=0;fillColor=none;top=0;left=0;bottom=0;right=0;align=left;spacingLeft=6;fontStyle=5;overflow=hidden;whiteSpace=wrap;html=1;" parent="kt7ekBlPG1MY4KIuGOSw-2" vertex="1">
          <mxGeometry x="30" width="170" height="30" as="geometry">
            <mxRectangle width="170" height="30" as="alternateBounds" />
          </mxGeometry>
        </mxCell>
        <mxCell id="kt7ekBlPG1MY4KIuGOSw-5" value="" style="shape=tableRow;horizontal=0;startSize=0;swimlaneHead=0;swimlaneBody=0;fillColor=none;collapsible=0;dropTarget=0;points=[[0,0.5],[1,0.5]];portConstraint=eastwest;top=0;left=0;right=0;bottom=0;" parent="kt7ekBlPG1MY4KIuGOSw-1" vertex="1">
          <mxGeometry y="60" width="200" height="30" as="geometry" />
        </mxCell>
        <mxCell id="kt7ekBlPG1MY4KIuGOSw-6" value="" style="shape=partialRectangle;connectable=0;fillColor=none;top=0;left=0;bottom=0;right=0;editable=1;overflow=hidden;whiteSpace=wrap;html=1;" parent="kt7ekBlPG1MY4KIuGOSw-5" vertex="1">
          <mxGeometry width="30" height="30" as="geometry">
            <mxRectangle width="30" height="30" as="alternateBounds" />
          </mxGeometry>
        </mxCell>
        <mxCell id="kt7ekBlPG1MY4KIuGOSw-7" value="DESCRIPCION" style="shape=partialRectangle;connectable=0;fillColor=none;top=0;left=0;bottom=0;right=0;align=left;spacingLeft=6;overflow=hidden;whiteSpace=wrap;html=1;" parent="kt7ekBlPG1MY4KIuGOSw-5" vertex="1">
          <mxGeometry x="30" width="170" height="30" as="geometry">
            <mxRectangle width="170" height="30" as="alternateBounds" />
          </mxGeometry>
        </mxCell>
        <mxCell id="kt7ekBlPG1MY4KIuGOSw-20" value="Usuarios" style="shape=table;startSize=30;container=1;collapsible=1;childLayout=tableLayout;fixedRows=1;rowLines=0;fontStyle=1;align=center;resizeLast=1;html=1;" parent="1" vertex="1">
          <mxGeometry x="690" y="450" width="210" height="180" as="geometry" />
        </mxCell>
        <mxCell id="kt7ekBlPG1MY4KIuGOSw-21" value="" style="shape=tableRow;horizontal=0;startSize=0;swimlaneHead=0;swimlaneBody=0;fillColor=none;collapsible=0;dropTarget=0;points=[[0,0.5],[1,0.5]];portConstraint=eastwest;top=0;left=0;right=0;bottom=1;" parent="kt7ekBlPG1MY4KIuGOSw-20" vertex="1">
          <mxGeometry y="30" width="210" height="30" as="geometry" />
        </mxCell>
        <mxCell id="kt7ekBlPG1MY4KIuGOSw-22" value="PK" style="shape=partialRectangle;connectable=0;fillColor=none;top=0;left=0;bottom=0;right=0;fontStyle=1;overflow=hidden;whiteSpace=wrap;html=1;" parent="kt7ekBlPG1MY4KIuGOSw-21" vertex="1">
          <mxGeometry width="50" height="30" as="geometry">
            <mxRectangle width="50" height="30" as="alternateBounds" />
          </mxGeometry>
        </mxCell>
        <mxCell id="kt7ekBlPG1MY4KIuGOSw-23" value="CODIGO_USUARIO" style="shape=partialRectangle;connectable=0;fillColor=none;top=0;left=0;bottom=0;right=0;align=left;spacingLeft=6;fontStyle=5;overflow=hidden;whiteSpace=wrap;html=1;" parent="kt7ekBlPG1MY4KIuGOSw-21" vertex="1">
          <mxGeometry x="50" width="160" height="30" as="geometry">
            <mxRectangle width="160" height="30" as="alternateBounds" />
          </mxGeometry>
        </mxCell>
        <mxCell id="kt7ekBlPG1MY4KIuGOSw-24" value="" style="shape=tableRow;horizontal=0;startSize=0;swimlaneHead=0;swimlaneBody=0;fillColor=none;collapsible=0;dropTarget=0;points=[[0,0.5],[1,0.5]];portConstraint=eastwest;top=0;left=0;right=0;bottom=0;" parent="kt7ekBlPG1MY4KIuGOSw-20" vertex="1">
          <mxGeometry y="60" width="210" height="30" as="geometry" />
        </mxCell>
        <mxCell id="kt7ekBlPG1MY4KIuGOSw-25" value="FK,UK" style="shape=partialRectangle;connectable=0;fillColor=none;top=0;left=0;bottom=0;right=0;editable=1;overflow=hidden;whiteSpace=wrap;html=1;" parent="kt7ekBlPG1MY4KIuGOSw-24" vertex="1">
          <mxGeometry width="50" height="30" as="geometry">
            <mxRectangle width="50" height="30" as="alternateBounds" />
          </mxGeometry>
        </mxCell>
        <mxCell id="kt7ekBlPG1MY4KIuGOSw-26" value="&lt;b&gt;&lt;u&gt;DNI_PERSONA&lt;/u&gt;&lt;/b&gt;" style="shape=partialRectangle;connectable=0;fillColor=none;top=0;left=0;bottom=0;right=0;align=left;spacingLeft=6;overflow=hidden;whiteSpace=wrap;html=1;" parent="kt7ekBlPG1MY4KIuGOSw-24" vertex="1">
          <mxGeometry x="50" width="160" height="30" as="geometry">
            <mxRectangle width="160" height="30" as="alternateBounds" />
          </mxGeometry>
        </mxCell>
        <mxCell id="kt7ekBlPG1MY4KIuGOSw-36" value="" style="shape=tableRow;horizontal=0;startSize=0;swimlaneHead=0;swimlaneBody=0;fillColor=none;collapsible=0;dropTarget=0;points=[[0,0.5],[1,0.5]];portConstraint=eastwest;top=0;left=0;right=0;bottom=0;" parent="kt7ekBlPG1MY4KIuGOSw-20" vertex="1">
          <mxGeometry y="90" width="210" height="30" as="geometry" />
        </mxCell>
        <mxCell id="kt7ekBlPG1MY4KIuGOSw-37" value="" style="shape=partialRectangle;connectable=0;fillColor=none;top=0;left=0;bottom=0;right=0;editable=1;overflow=hidden;whiteSpace=wrap;html=1;" parent="kt7ekBlPG1MY4KIuGOSw-36" vertex="1">
          <mxGeometry width="50" height="30" as="geometry">
            <mxRectangle width="50" height="30" as="alternateBounds" />
          </mxGeometry>
        </mxCell>
        <mxCell id="kt7ekBlPG1MY4KIuGOSw-38" value="MAIL_PERSONA" style="shape=partialRectangle;connectable=0;fillColor=none;top=0;left=0;bottom=0;right=0;align=left;spacingLeft=6;overflow=hidden;whiteSpace=wrap;html=1;" parent="kt7ekBlPG1MY4KIuGOSw-36" vertex="1">
          <mxGeometry x="50" width="160" height="30" as="geometry">
            <mxRectangle width="160" height="30" as="alternateBounds" />
          </mxGeometry>
        </mxCell>
        <mxCell id="kt7ekBlPG1MY4KIuGOSw-39" value="" style="shape=tableRow;horizontal=0;startSize=0;swimlaneHead=0;swimlaneBody=0;fillColor=none;collapsible=0;dropTarget=0;points=[[0,0.5],[1,0.5]];portConstraint=eastwest;top=0;left=0;right=0;bottom=0;" parent="kt7ekBlPG1MY4KIuGOSw-20" vertex="1">
          <mxGeometry y="120" width="210" height="30" as="geometry" />
        </mxCell>
        <mxCell id="kt7ekBlPG1MY4KIuGOSw-40" value="" style="shape=partialRectangle;connectable=0;fillColor=none;top=0;left=0;bottom=0;right=0;editable=1;overflow=hidden;whiteSpace=wrap;html=1;" parent="kt7ekBlPG1MY4KIuGOSw-39" vertex="1">
          <mxGeometry width="50" height="30" as="geometry">
            <mxRectangle width="50" height="30" as="alternateBounds" />
          </mxGeometry>
        </mxCell>
        <mxCell id="kt7ekBlPG1MY4KIuGOSw-41" value="CONTRASEÑA_USUARIO" style="shape=partialRectangle;connectable=0;fillColor=none;top=0;left=0;bottom=0;right=0;align=left;spacingLeft=6;overflow=hidden;whiteSpace=wrap;html=1;" parent="kt7ekBlPG1MY4KIuGOSw-39" vertex="1">
          <mxGeometry x="50" width="160" height="30" as="geometry">
            <mxRectangle width="160" height="30" as="alternateBounds" />
          </mxGeometry>
        </mxCell>
        <mxCell id="kt7ekBlPG1MY4KIuGOSw-42" value="Clases" style="shape=table;startSize=30;container=1;collapsible=1;childLayout=tableLayout;fixedRows=1;rowLines=0;fontStyle=1;align=center;resizeLast=1;html=1;whiteSpace=wrap;columnLines=1;swimlaneHead=1;swimlaneBody=1;horizontal=1;top=1;bottom=1;left=1;right=1;connectable=1;allowArrows=1;dropTarget=1;strokeColor=default;" parent="1" vertex="1">
          <mxGeometry x="450" y="530" width="200" height="350" as="geometry">
            <mxRectangle x="450" y="530" width="80" height="30" as="alternateBounds" />
          </mxGeometry>
        </mxCell>
        <mxCell id="kt7ekBlPG1MY4KIuGOSw-46" value="" style="shape=tableRow;horizontal=0;startSize=0;swimlaneHead=0;swimlaneBody=0;fillColor=none;collapsible=0;dropTarget=0;points=[[0,0.5],[1,0.5]];portConstraint=eastwest;top=0;left=0;right=0;bottom=1;html=1;" parent="kt7ekBlPG1MY4KIuGOSw-42" vertex="1">
          <mxGeometry y="30" width="200" height="40" as="geometry" />
        </mxCell>
        <mxCell id="kt7ekBlPG1MY4KIuGOSw-47" value="PK" style="shape=partialRectangle;connectable=0;fillColor=none;top=0;left=0;bottom=0;right=0;fontStyle=1;overflow=hidden;html=1;whiteSpace=wrap;" parent="kt7ekBlPG1MY4KIuGOSw-46" vertex="1">
          <mxGeometry width="60" height="40" as="geometry">
            <mxRectangle width="60" height="40" as="alternateBounds" />
          </mxGeometry>
        </mxCell>
        <mxCell id="kt7ekBlPG1MY4KIuGOSw-48" value="ID_CLASE" style="shape=partialRectangle;connectable=0;fillColor=none;top=0;left=0;bottom=0;right=0;align=left;spacingLeft=6;fontStyle=5;overflow=hidden;html=1;whiteSpace=wrap;" parent="kt7ekBlPG1MY4KIuGOSw-46" vertex="1">
          <mxGeometry x="60" width="140" height="40" as="geometry">
            <mxRectangle width="140" height="40" as="alternateBounds" />
          </mxGeometry>
        </mxCell>
        <mxCell id="kt7ekBlPG1MY4KIuGOSw-43" value="" style="shape=tableRow;horizontal=0;startSize=0;swimlaneHead=0;swimlaneBody=0;fillColor=none;collapsible=0;dropTarget=0;points=[[0,0.5],[1,0.5]];portConstraint=eastwest;top=0;left=0;right=0;bottom=0;html=1;" parent="kt7ekBlPG1MY4KIuGOSw-42" vertex="1">
          <mxGeometry y="70" width="200" height="30" as="geometry" />
        </mxCell>
        <mxCell id="kt7ekBlPG1MY4KIuGOSw-44" value="FK1" style="shape=partialRectangle;connectable=0;fillColor=none;top=0;left=0;bottom=0;right=0;fontStyle=1;overflow=hidden;html=1;whiteSpace=wrap;" parent="kt7ekBlPG1MY4KIuGOSw-43" vertex="1">
          <mxGeometry width="60" height="30" as="geometry">
            <mxRectangle width="60" height="30" as="alternateBounds" />
          </mxGeometry>
        </mxCell>
        <mxCell id="kt7ekBlPG1MY4KIuGOSw-45" value="CODIGO_USUARIO" style="shape=partialRectangle;connectable=0;fillColor=none;top=0;left=0;bottom=0;right=0;align=left;spacingLeft=6;fontStyle=1;overflow=hidden;html=1;whiteSpace=wrap;" parent="kt7ekBlPG1MY4KIuGOSw-43" vertex="1">
          <mxGeometry x="60" width="140" height="30" as="geometry">
            <mxRectangle width="140" height="30" as="alternateBounds" />
          </mxGeometry>
        </mxCell>
        <mxCell id="6qR9zpXF2BAlvnuU101y-12" value="" style="shape=tableRow;horizontal=0;startSize=0;swimlaneHead=0;swimlaneBody=0;fillColor=none;collapsible=0;dropTarget=0;points=[[0,0.5],[1,0.5]];portConstraint=eastwest;top=0;left=0;right=0;bottom=0;html=1;swimlaneLine=1;strokeColor=default;" parent="kt7ekBlPG1MY4KIuGOSw-42" vertex="1">
          <mxGeometry y="100" width="200" height="40" as="geometry" />
        </mxCell>
        <mxCell id="6qR9zpXF2BAlvnuU101y-13" value="FK2" style="shape=partialRectangle;connectable=0;fillColor=none;top=0;left=0;bottom=0;right=0;fontStyle=1;overflow=hidden;html=1;whiteSpace=wrap;allowArrows=1;recursiveResize=1;expand=1;" parent="6qR9zpXF2BAlvnuU101y-12" vertex="1">
          <mxGeometry width="60" height="40" as="geometry">
            <mxRectangle width="60" height="40" as="alternateBounds" />
          </mxGeometry>
        </mxCell>
        <mxCell id="6qR9zpXF2BAlvnuU101y-14" value="CODIGO_MATERIA" style="shape=partialRectangle;connectable=0;fillColor=none;top=0;left=0;bottom=0;right=0;align=left;spacingLeft=6;fontStyle=1;overflow=hidden;html=1;whiteSpace=wrap;strokeColor=default;" parent="6qR9zpXF2BAlvnuU101y-12" vertex="1">
          <mxGeometry x="60" width="140" height="40" as="geometry">
            <mxRectangle width="140" height="40" as="alternateBounds" />
          </mxGeometry>
        </mxCell>
        <mxCell id="kt7ekBlPG1MY4KIuGOSw-52" value="" style="shape=tableRow;horizontal=0;startSize=0;swimlaneHead=0;swimlaneBody=0;fillColor=none;collapsible=0;dropTarget=0;points=[[0,0.5],[1,0.5]];portConstraint=eastwest;top=0;left=0;right=0;bottom=0;html=1;" parent="kt7ekBlPG1MY4KIuGOSw-42" vertex="1">
          <mxGeometry y="140" width="200" height="30" as="geometry" />
        </mxCell>
        <mxCell id="kt7ekBlPG1MY4KIuGOSw-53" value="" style="shape=partialRectangle;connectable=0;fillColor=none;top=0;left=0;bottom=0;right=0;editable=1;overflow=hidden;html=1;whiteSpace=wrap;" parent="kt7ekBlPG1MY4KIuGOSw-52" vertex="1">
          <mxGeometry width="60" height="30" as="geometry">
            <mxRectangle width="60" height="30" as="alternateBounds" />
          </mxGeometry>
        </mxCell>
        <mxCell id="kt7ekBlPG1MY4KIuGOSw-54" value="FECHA" style="shape=partialRectangle;connectable=0;fillColor=none;top=0;left=0;bottom=0;right=0;align=left;spacingLeft=6;overflow=hidden;html=1;whiteSpace=wrap;" parent="kt7ekBlPG1MY4KIuGOSw-52" vertex="1">
          <mxGeometry x="60" width="140" height="30" as="geometry">
            <mxRectangle width="140" height="30" as="alternateBounds" />
          </mxGeometry>
        </mxCell>
        <mxCell id="kt7ekBlPG1MY4KIuGOSw-55" value="" style="shape=tableRow;horizontal=0;startSize=0;swimlaneHead=0;swimlaneBody=0;fillColor=none;collapsible=0;dropTarget=0;points=[[0,0.5],[1,0.5]];portConstraint=eastwest;top=0;left=0;right=0;bottom=0;html=1;" parent="kt7ekBlPG1MY4KIuGOSw-42" vertex="1">
          <mxGeometry y="170" width="200" height="30" as="geometry" />
        </mxCell>
        <mxCell id="kt7ekBlPG1MY4KIuGOSw-56" value="" style="shape=partialRectangle;connectable=0;fillColor=none;top=0;left=0;bottom=0;right=0;editable=1;overflow=hidden;html=1;whiteSpace=wrap;" parent="kt7ekBlPG1MY4KIuGOSw-55" vertex="1">
          <mxGeometry width="60" height="30" as="geometry">
            <mxRectangle width="60" height="30" as="alternateBounds" />
          </mxGeometry>
        </mxCell>
        <mxCell id="kt7ekBlPG1MY4KIuGOSw-57" value="&lt;span style=&quot;font-weight: 700; text-decoration-line: underline;&quot;&gt;CODIGO_COMISION&lt;/span&gt;" style="shape=partialRectangle;connectable=0;fillColor=none;top=0;left=0;bottom=0;right=0;align=left;spacingLeft=6;overflow=hidden;html=1;whiteSpace=wrap;" parent="kt7ekBlPG1MY4KIuGOSw-55" vertex="1">
          <mxGeometry x="60" width="140" height="30" as="geometry">
            <mxRectangle width="140" height="30" as="alternateBounds" />
          </mxGeometry>
        </mxCell>
        <mxCell id="kt7ekBlPG1MY4KIuGOSw-61" value="" style="shape=tableRow;horizontal=0;startSize=0;swimlaneHead=0;swimlaneBody=0;fillColor=none;collapsible=0;dropTarget=0;points=[[0,0.5],[1,0.5]];portConstraint=eastwest;top=0;left=0;right=0;bottom=0;html=1;" parent="kt7ekBlPG1MY4KIuGOSw-42" vertex="1">
          <mxGeometry y="200" width="200" height="30" as="geometry" />
        </mxCell>
        <mxCell id="kt7ekBlPG1MY4KIuGOSw-62" value="" style="shape=partialRectangle;connectable=0;fillColor=none;top=0;left=0;bottom=0;right=0;editable=1;overflow=hidden;html=1;whiteSpace=wrap;" parent="kt7ekBlPG1MY4KIuGOSw-61" vertex="1">
          <mxGeometry width="60" height="30" as="geometry">
            <mxRectangle width="60" height="30" as="alternateBounds" />
          </mxGeometry>
        </mxCell>
        <mxCell id="kt7ekBlPG1MY4KIuGOSw-63" value="TEMAS" style="shape=partialRectangle;connectable=0;fillColor=none;top=0;left=0;bottom=0;right=0;align=left;spacingLeft=6;overflow=hidden;html=1;whiteSpace=wrap;" parent="kt7ekBlPG1MY4KIuGOSw-61" vertex="1">
          <mxGeometry x="60" width="140" height="30" as="geometry">
            <mxRectangle width="140" height="30" as="alternateBounds" />
          </mxGeometry>
        </mxCell>
        <mxCell id="UIV_hnuuXhI2ZquRKrRw-145" value="" style="shape=tableRow;horizontal=0;startSize=0;swimlaneHead=0;swimlaneBody=0;fillColor=none;collapsible=0;dropTarget=0;points=[[0,0.5],[1,0.5]];portConstraint=eastwest;top=0;left=0;right=0;bottom=0;html=1;" parent="kt7ekBlPG1MY4KIuGOSw-42" vertex="1">
          <mxGeometry y="230" width="200" height="30" as="geometry" />
        </mxCell>
        <mxCell id="UIV_hnuuXhI2ZquRKrRw-146" value="" style="shape=partialRectangle;connectable=0;fillColor=none;top=0;left=0;bottom=0;right=0;editable=1;overflow=hidden;html=1;whiteSpace=wrap;" parent="UIV_hnuuXhI2ZquRKrRw-145" vertex="1">
          <mxGeometry width="60" height="30" as="geometry">
            <mxRectangle width="60" height="30" as="alternateBounds" />
          </mxGeometry>
        </mxCell>
        <mxCell id="UIV_hnuuXhI2ZquRKrRw-147" value="NOVEDADES" style="shape=partialRectangle;connectable=0;fillColor=none;top=0;left=0;bottom=0;right=0;align=left;spacingLeft=6;overflow=hidden;html=1;whiteSpace=wrap;" parent="UIV_hnuuXhI2ZquRKrRw-145" vertex="1">
          <mxGeometry x="60" width="140" height="30" as="geometry">
            <mxRectangle width="140" height="30" as="alternateBounds" />
          </mxGeometry>
        </mxCell>
        <mxCell id="fN0fKKqA2JxCGqHEbq-L-1" value="" style="shape=tableRow;horizontal=0;startSize=0;swimlaneHead=0;swimlaneBody=0;fillColor=none;collapsible=0;dropTarget=0;points=[[0,0.5],[1,0.5]];portConstraint=eastwest;top=0;left=0;right=0;bottom=0;html=1;" parent="kt7ekBlPG1MY4KIuGOSw-42" vertex="1">
          <mxGeometry y="260" width="200" height="30" as="geometry" />
        </mxCell>
        <mxCell id="fN0fKKqA2JxCGqHEbq-L-2" value="" style="shape=partialRectangle;connectable=0;fillColor=none;top=0;left=0;bottom=0;right=0;editable=1;overflow=hidden;html=1;whiteSpace=wrap;" parent="fN0fKKqA2JxCGqHEbq-L-1" vertex="1">
          <mxGeometry width="60" height="30" as="geometry">
            <mxRectangle width="60" height="30" as="alternateBounds" />
          </mxGeometry>
        </mxCell>
        <mxCell id="fN0fKKqA2JxCGqHEbq-L-3" value="&lt;span style=&quot;font-weight: 700; text-decoration-line: underline;&quot;&gt;CODIGO_HORARIO&lt;/span&gt;" style="shape=partialRectangle;connectable=0;fillColor=none;top=0;left=0;bottom=0;right=0;align=left;spacingLeft=6;overflow=hidden;html=1;whiteSpace=wrap;" parent="fN0fKKqA2JxCGqHEbq-L-1" vertex="1">
          <mxGeometry x="60" width="140" height="30" as="geometry">
            <mxRectangle width="140" height="30" as="alternateBounds" />
          </mxGeometry>
        </mxCell>
        <mxCell id="UIV_hnuuXhI2ZquRKrRw-29" value="" style="shape=tableRow;horizontal=0;startSize=0;swimlaneHead=0;swimlaneBody=0;fillColor=none;collapsible=0;dropTarget=0;points=[[0,0.5],[1,0.5]];portConstraint=eastwest;top=0;left=0;right=0;bottom=0;html=1;" parent="kt7ekBlPG1MY4KIuGOSw-42" vertex="1">
          <mxGeometry y="290" width="200" height="30" as="geometry" />
        </mxCell>
        <mxCell id="UIV_hnuuXhI2ZquRKrRw-30" value="" style="shape=partialRectangle;connectable=0;fillColor=none;top=0;left=0;bottom=0;right=0;editable=1;overflow=hidden;html=1;whiteSpace=wrap;" parent="UIV_hnuuXhI2ZquRKrRw-29" vertex="1">
          <mxGeometry width="60" height="30" as="geometry">
            <mxRectangle width="60" height="30" as="alternateBounds" />
          </mxGeometry>
        </mxCell>
        <mxCell id="UIV_hnuuXhI2ZquRKrRw-31" value="AULA" style="shape=partialRectangle;connectable=0;fillColor=none;top=0;left=0;bottom=0;right=0;align=left;spacingLeft=6;overflow=hidden;html=1;whiteSpace=wrap;" parent="UIV_hnuuXhI2ZquRKrRw-29" vertex="1">
          <mxGeometry x="60" width="140" height="30" as="geometry">
            <mxRectangle width="140" height="30" as="alternateBounds" />
          </mxGeometry>
        </mxCell>
        <mxCell id="6qR9zpXF2BAlvnuU101y-2" value="" style="shape=tableRow;horizontal=0;startSize=0;swimlaneHead=0;swimlaneBody=0;fillColor=none;collapsible=0;dropTarget=0;points=[[0,0.5],[1,0.5]];portConstraint=eastwest;top=0;left=0;right=0;bottom=0;html=1;" parent="kt7ekBlPG1MY4KIuGOSw-42" vertex="1">
          <mxGeometry y="320" width="200" height="30" as="geometry" />
        </mxCell>
        <mxCell id="6qR9zpXF2BAlvnuU101y-3" value="" style="shape=partialRectangle;connectable=0;fillColor=none;top=0;left=0;bottom=0;right=0;editable=1;overflow=hidden;html=1;whiteSpace=wrap;" parent="6qR9zpXF2BAlvnuU101y-2" vertex="1">
          <mxGeometry width="60" height="30" as="geometry">
            <mxRectangle width="60" height="30" as="alternateBounds" />
          </mxGeometry>
        </mxCell>
        <mxCell id="6qR9zpXF2BAlvnuU101y-4" value="ARCHIVOS" style="shape=partialRectangle;connectable=0;fillColor=none;top=0;left=0;bottom=0;right=0;align=left;spacingLeft=6;overflow=hidden;html=1;whiteSpace=wrap;" parent="6qR9zpXF2BAlvnuU101y-2" vertex="1">
          <mxGeometry x="60" width="140" height="30" as="geometry">
            <mxRectangle width="140" height="30" as="alternateBounds" />
          </mxGeometry>
        </mxCell>
        <mxCell id="kt7ekBlPG1MY4KIuGOSw-65" value="Carreras" style="shape=table;startSize=30;container=1;collapsible=1;childLayout=tableLayout;fixedRows=1;rowLines=0;fontStyle=1;align=center;resizeLast=1;html=1;" parent="1" vertex="1">
          <mxGeometry x="460" y="200" width="190" height="120" as="geometry" />
        </mxCell>
        <mxCell id="kt7ekBlPG1MY4KIuGOSw-66" value="" style="shape=tableRow;horizontal=0;startSize=0;swimlaneHead=0;swimlaneBody=0;fillColor=none;collapsible=0;dropTarget=0;points=[[0,0.5],[1,0.5]];portConstraint=eastwest;top=0;left=0;right=0;bottom=1;" parent="kt7ekBlPG1MY4KIuGOSw-65" vertex="1">
          <mxGeometry y="30" width="190" height="30" as="geometry" />
        </mxCell>
        <mxCell id="kt7ekBlPG1MY4KIuGOSw-67" value="PK" style="shape=partialRectangle;connectable=0;fillColor=none;top=0;left=0;bottom=0;right=0;fontStyle=1;overflow=hidden;whiteSpace=wrap;html=1;" parent="kt7ekBlPG1MY4KIuGOSw-66" vertex="1">
          <mxGeometry width="30" height="30" as="geometry">
            <mxRectangle width="30" height="30" as="alternateBounds" />
          </mxGeometry>
        </mxCell>
        <mxCell id="kt7ekBlPG1MY4KIuGOSw-68" value="ID_CARRERA" style="shape=partialRectangle;connectable=0;fillColor=none;top=0;left=0;bottom=0;right=0;align=left;spacingLeft=6;fontStyle=5;overflow=hidden;whiteSpace=wrap;html=1;" parent="kt7ekBlPG1MY4KIuGOSw-66" vertex="1">
          <mxGeometry x="30" width="160" height="30" as="geometry">
            <mxRectangle width="160" height="30" as="alternateBounds" />
          </mxGeometry>
        </mxCell>
        <mxCell id="kt7ekBlPG1MY4KIuGOSw-69" value="" style="shape=tableRow;horizontal=0;startSize=0;swimlaneHead=0;swimlaneBody=0;fillColor=none;collapsible=0;dropTarget=0;points=[[0,0.5],[1,0.5]];portConstraint=eastwest;top=0;left=0;right=0;bottom=0;" parent="kt7ekBlPG1MY4KIuGOSw-65" vertex="1">
          <mxGeometry y="60" width="190" height="30" as="geometry" />
        </mxCell>
        <mxCell id="kt7ekBlPG1MY4KIuGOSw-70" value="" style="shape=partialRectangle;connectable=0;fillColor=none;top=0;left=0;bottom=0;right=0;editable=1;overflow=hidden;whiteSpace=wrap;html=1;" parent="kt7ekBlPG1MY4KIuGOSw-69" vertex="1">
          <mxGeometry width="30" height="30" as="geometry">
            <mxRectangle width="30" height="30" as="alternateBounds" />
          </mxGeometry>
        </mxCell>
        <mxCell id="kt7ekBlPG1MY4KIuGOSw-71" value="TITULO_ABREVIADO&lt;span style=&quot;white-space: pre;&quot;&gt;&#x9;&lt;/span&gt;&lt;span style=&quot;white-space: pre;&quot;&gt;&#x9;&lt;/span&gt;" style="shape=partialRectangle;connectable=0;fillColor=none;top=0;left=0;bottom=0;right=0;align=left;spacingLeft=6;overflow=hidden;whiteSpace=wrap;html=1;" parent="kt7ekBlPG1MY4KIuGOSw-69" vertex="1">
          <mxGeometry x="30" width="160" height="30" as="geometry">
            <mxRectangle width="160" height="30" as="alternateBounds" />
          </mxGeometry>
        </mxCell>
        <mxCell id="kt7ekBlPG1MY4KIuGOSw-72" value="" style="shape=tableRow;horizontal=0;startSize=0;swimlaneHead=0;swimlaneBody=0;fillColor=none;collapsible=0;dropTarget=0;points=[[0,0.5],[1,0.5]];portConstraint=eastwest;top=0;left=0;right=0;bottom=0;" parent="kt7ekBlPG1MY4KIuGOSw-65" vertex="1">
          <mxGeometry y="90" width="190" height="30" as="geometry" />
        </mxCell>
        <mxCell id="kt7ekBlPG1MY4KIuGOSw-73" value="" style="shape=partialRectangle;connectable=0;fillColor=none;top=0;left=0;bottom=0;right=0;editable=1;overflow=hidden;whiteSpace=wrap;html=1;" parent="kt7ekBlPG1MY4KIuGOSw-72" vertex="1">
          <mxGeometry width="30" height="30" as="geometry">
            <mxRectangle width="30" height="30" as="alternateBounds" />
          </mxGeometry>
        </mxCell>
        <mxCell id="kt7ekBlPG1MY4KIuGOSw-74" value="DESCRIPCION" style="shape=partialRectangle;connectable=0;fillColor=none;top=0;left=0;bottom=0;right=0;align=left;spacingLeft=6;overflow=hidden;whiteSpace=wrap;html=1;" parent="kt7ekBlPG1MY4KIuGOSw-72" vertex="1">
          <mxGeometry x="30" width="160" height="30" as="geometry">
            <mxRectangle width="160" height="30" as="alternateBounds" />
          </mxGeometry>
        </mxCell>
        <mxCell id="kt7ekBlPG1MY4KIuGOSw-75" value="Materias" style="shape=table;startSize=30;container=1;collapsible=1;childLayout=tableLayout;fixedRows=1;rowLines=0;fontStyle=1;align=center;resizeLast=1;html=1;" parent="1" vertex="1">
          <mxGeometry x="460" y="360" width="190" height="120" as="geometry" />
        </mxCell>
        <mxCell id="kt7ekBlPG1MY4KIuGOSw-76" value="" style="shape=tableRow;horizontal=0;startSize=0;swimlaneHead=0;swimlaneBody=0;fillColor=none;collapsible=0;dropTarget=0;points=[[0,0.5],[1,0.5]];portConstraint=eastwest;top=0;left=0;right=0;bottom=1;" parent="kt7ekBlPG1MY4KIuGOSw-75" vertex="1">
          <mxGeometry y="30" width="190" height="30" as="geometry" />
        </mxCell>
        <mxCell id="kt7ekBlPG1MY4KIuGOSw-77" value="PK" style="shape=partialRectangle;connectable=0;fillColor=none;top=0;left=0;bottom=0;right=0;fontStyle=1;overflow=hidden;whiteSpace=wrap;html=1;" parent="kt7ekBlPG1MY4KIuGOSw-76" vertex="1">
          <mxGeometry width="30" height="30" as="geometry">
            <mxRectangle width="30" height="30" as="alternateBounds" />
          </mxGeometry>
        </mxCell>
        <mxCell id="kt7ekBlPG1MY4KIuGOSw-78" value="CODIGO_MATERIA" style="shape=partialRectangle;connectable=0;fillColor=none;top=0;left=0;bottom=0;right=0;align=left;spacingLeft=6;fontStyle=5;overflow=hidden;whiteSpace=wrap;html=1;" parent="kt7ekBlPG1MY4KIuGOSw-76" vertex="1">
          <mxGeometry x="30" width="160" height="30" as="geometry">
            <mxRectangle width="160" height="30" as="alternateBounds" />
          </mxGeometry>
        </mxCell>
        <mxCell id="kt7ekBlPG1MY4KIuGOSw-82" value="" style="shape=tableRow;horizontal=0;startSize=0;swimlaneHead=0;swimlaneBody=0;fillColor=none;collapsible=0;dropTarget=0;points=[[0,0.5],[1,0.5]];portConstraint=eastwest;top=0;left=0;right=0;bottom=0;" parent="kt7ekBlPG1MY4KIuGOSw-75" vertex="1">
          <mxGeometry y="60" width="190" height="30" as="geometry" />
        </mxCell>
        <mxCell id="kt7ekBlPG1MY4KIuGOSw-83" value="FK" style="shape=partialRectangle;connectable=0;fillColor=none;top=0;left=0;bottom=0;right=0;editable=1;overflow=hidden;whiteSpace=wrap;html=1;" parent="kt7ekBlPG1MY4KIuGOSw-82" vertex="1">
          <mxGeometry width="30" height="30" as="geometry">
            <mxRectangle width="30" height="30" as="alternateBounds" />
          </mxGeometry>
        </mxCell>
        <mxCell id="kt7ekBlPG1MY4KIuGOSw-84" value="&lt;b&gt;&lt;u&gt;ID_CARRERA&lt;/u&gt;&lt;/b&gt;" style="shape=partialRectangle;connectable=0;fillColor=none;top=0;left=0;bottom=0;right=0;align=left;spacingLeft=6;overflow=hidden;whiteSpace=wrap;html=1;" parent="kt7ekBlPG1MY4KIuGOSw-82" vertex="1">
          <mxGeometry x="30" width="160" height="30" as="geometry">
            <mxRectangle width="160" height="30" as="alternateBounds" />
          </mxGeometry>
        </mxCell>
        <mxCell id="kt7ekBlPG1MY4KIuGOSw-79" value="" style="shape=tableRow;horizontal=0;startSize=0;swimlaneHead=0;swimlaneBody=0;fillColor=none;collapsible=0;dropTarget=0;points=[[0,0.5],[1,0.5]];portConstraint=eastwest;top=0;left=0;right=0;bottom=0;" parent="kt7ekBlPG1MY4KIuGOSw-75" vertex="1">
          <mxGeometry y="90" width="190" height="30" as="geometry" />
        </mxCell>
        <mxCell id="kt7ekBlPG1MY4KIuGOSw-80" value="" style="shape=partialRectangle;connectable=0;fillColor=none;top=0;left=0;bottom=0;right=0;editable=1;overflow=hidden;whiteSpace=wrap;html=1;" parent="kt7ekBlPG1MY4KIuGOSw-79" vertex="1">
          <mxGeometry width="30" height="30" as="geometry">
            <mxRectangle width="30" height="30" as="alternateBounds" />
          </mxGeometry>
        </mxCell>
        <mxCell id="kt7ekBlPG1MY4KIuGOSw-81" value="NOMBRE_MATERIA" style="shape=partialRectangle;connectable=0;fillColor=none;top=0;left=0;bottom=0;right=0;align=left;spacingLeft=6;overflow=hidden;whiteSpace=wrap;html=1;" parent="kt7ekBlPG1MY4KIuGOSw-79" vertex="1">
          <mxGeometry x="30" width="160" height="30" as="geometry">
            <mxRectangle width="160" height="30" as="alternateBounds" />
          </mxGeometry>
        </mxCell>
        <mxCell id="UIV_hnuuXhI2ZquRKrRw-3" value="Personas" style="shape=table;startSize=30;container=1;collapsible=1;childLayout=tableLayout;fixedRows=1;rowLines=0;fontStyle=1;align=center;resizeLast=1;html=1;" parent="1" vertex="1">
          <mxGeometry x="690" y="250" width="200" height="150" as="geometry" />
        </mxCell>
        <mxCell id="UIV_hnuuXhI2ZquRKrRw-4" value="" style="shape=tableRow;horizontal=0;startSize=0;swimlaneHead=0;swimlaneBody=0;fillColor=none;collapsible=0;dropTarget=0;points=[[0,0.5],[1,0.5]];portConstraint=eastwest;top=0;left=0;right=0;bottom=1;" parent="UIV_hnuuXhI2ZquRKrRw-3" vertex="1">
          <mxGeometry y="30" width="200" height="30" as="geometry" />
        </mxCell>
        <mxCell id="UIV_hnuuXhI2ZquRKrRw-5" value="PK" style="shape=partialRectangle;connectable=0;fillColor=none;top=0;left=0;bottom=0;right=0;fontStyle=1;overflow=hidden;whiteSpace=wrap;html=1;" parent="UIV_hnuuXhI2ZquRKrRw-4" vertex="1">
          <mxGeometry width="50" height="30" as="geometry">
            <mxRectangle width="50" height="30" as="alternateBounds" />
          </mxGeometry>
        </mxCell>
        <mxCell id="UIV_hnuuXhI2ZquRKrRw-6" value="DNI_PERSONA" style="shape=partialRectangle;connectable=0;fillColor=none;top=0;left=0;bottom=0;right=0;align=left;spacingLeft=6;fontStyle=5;overflow=hidden;whiteSpace=wrap;html=1;" parent="UIV_hnuuXhI2ZquRKrRw-4" vertex="1">
          <mxGeometry x="50" width="150" height="30" as="geometry">
            <mxRectangle width="150" height="30" as="alternateBounds" />
          </mxGeometry>
        </mxCell>
        <mxCell id="UIV_hnuuXhI2ZquRKrRw-10" value="" style="shape=tableRow;horizontal=0;startSize=0;swimlaneHead=0;swimlaneBody=0;fillColor=none;collapsible=0;dropTarget=0;points=[[0,0.5],[1,0.5]];portConstraint=eastwest;top=0;left=0;right=0;bottom=0;" parent="UIV_hnuuXhI2ZquRKrRw-3" vertex="1">
          <mxGeometry y="60" width="200" height="30" as="geometry" />
        </mxCell>
        <mxCell id="UIV_hnuuXhI2ZquRKrRw-11" value="" style="shape=partialRectangle;connectable=0;fillColor=none;top=0;left=0;bottom=0;right=0;editable=1;overflow=hidden;whiteSpace=wrap;html=1;" parent="UIV_hnuuXhI2ZquRKrRw-10" vertex="1">
          <mxGeometry width="50" height="30" as="geometry">
            <mxRectangle width="50" height="30" as="alternateBounds" />
          </mxGeometry>
        </mxCell>
        <mxCell id="UIV_hnuuXhI2ZquRKrRw-12" value="NOMBRE_PERSONA" style="shape=partialRectangle;connectable=0;fillColor=none;top=0;left=0;bottom=0;right=0;align=left;spacingLeft=6;overflow=hidden;whiteSpace=wrap;html=1;" parent="UIV_hnuuXhI2ZquRKrRw-10" vertex="1">
          <mxGeometry x="50" width="150" height="30" as="geometry">
            <mxRectangle width="150" height="30" as="alternateBounds" />
          </mxGeometry>
        </mxCell>
        <mxCell id="UIV_hnuuXhI2ZquRKrRw-13" value="" style="shape=tableRow;horizontal=0;startSize=0;swimlaneHead=0;swimlaneBody=0;fillColor=none;collapsible=0;dropTarget=0;points=[[0,0.5],[1,0.5]];portConstraint=eastwest;top=0;left=0;right=0;bottom=0;" parent="UIV_hnuuXhI2ZquRKrRw-3" vertex="1">
          <mxGeometry y="90" width="200" height="30" as="geometry" />
        </mxCell>
        <mxCell id="UIV_hnuuXhI2ZquRKrRw-14" value="" style="shape=partialRectangle;connectable=0;fillColor=none;top=0;left=0;bottom=0;right=0;editable=1;overflow=hidden;whiteSpace=wrap;html=1;" parent="UIV_hnuuXhI2ZquRKrRw-13" vertex="1">
          <mxGeometry width="50" height="30" as="geometry">
            <mxRectangle width="50" height="30" as="alternateBounds" />
          </mxGeometry>
        </mxCell>
        <mxCell id="UIV_hnuuXhI2ZquRKrRw-15" value="APELLIDO_PERSONA" style="shape=partialRectangle;connectable=0;fillColor=none;top=0;left=0;bottom=0;right=0;align=left;spacingLeft=6;overflow=hidden;whiteSpace=wrap;html=1;" parent="UIV_hnuuXhI2ZquRKrRw-13" vertex="1">
          <mxGeometry x="50" width="150" height="30" as="geometry">
            <mxRectangle width="150" height="30" as="alternateBounds" />
          </mxGeometry>
        </mxCell>
        <mxCell id="UIV_hnuuXhI2ZquRKrRw-16" value="" style="shape=tableRow;horizontal=0;startSize=0;swimlaneHead=0;swimlaneBody=0;fillColor=none;collapsible=0;dropTarget=0;points=[[0,0.5],[1,0.5]];portConstraint=eastwest;top=0;left=0;right=0;bottom=0;" parent="UIV_hnuuXhI2ZquRKrRw-3" vertex="1">
          <mxGeometry y="120" width="200" height="30" as="geometry" />
        </mxCell>
        <mxCell id="UIV_hnuuXhI2ZquRKrRw-17" value="&lt;span style=&quot;font-weight: 700;&quot;&gt;FK&lt;/span&gt;" style="shape=partialRectangle;connectable=0;fillColor=none;top=0;left=0;bottom=0;right=0;editable=1;overflow=hidden;whiteSpace=wrap;html=1;" parent="UIV_hnuuXhI2ZquRKrRw-16" vertex="1">
          <mxGeometry width="50" height="30" as="geometry">
            <mxRectangle width="50" height="30" as="alternateBounds" />
          </mxGeometry>
        </mxCell>
        <mxCell id="UIV_hnuuXhI2ZquRKrRw-18" value="&lt;span style=&quot;font-weight: 700; text-decoration-line: underline;&quot;&gt;CODIGO_ROL&lt;/span&gt;" style="shape=partialRectangle;connectable=0;fillColor=none;top=0;left=0;bottom=0;right=0;align=left;spacingLeft=6;overflow=hidden;whiteSpace=wrap;html=1;" parent="UIV_hnuuXhI2ZquRKrRw-16" vertex="1">
          <mxGeometry x="50" width="150" height="30" as="geometry">
            <mxRectangle width="150" height="30" as="alternateBounds" />
          </mxGeometry>
        </mxCell>
        <mxCell id="UIV_hnuuXhI2ZquRKrRw-51" value="UsuXRol" style="shape=table;startSize=30;container=1;collapsible=1;childLayout=tableLayout;fixedRows=1;rowLines=0;fontStyle=1;align=center;resizeLast=1;html=1;whiteSpace=wrap;" parent="1" vertex="1">
          <mxGeometry x="970" y="450" width="200" height="90" as="geometry" />
        </mxCell>
        <mxCell id="UIV_hnuuXhI2ZquRKrRw-52" value="" style="shape=tableRow;horizontal=0;startSize=0;swimlaneHead=0;swimlaneBody=0;fillColor=none;collapsible=0;dropTarget=0;points=[[0,0.5],[1,0.5]];portConstraint=eastwest;top=0;left=0;right=0;bottom=0;html=1;" parent="UIV_hnuuXhI2ZquRKrRw-51" vertex="1">
          <mxGeometry y="30" width="200" height="30" as="geometry" />
        </mxCell>
        <mxCell id="UIV_hnuuXhI2ZquRKrRw-53" value="PK,FK1" style="shape=partialRectangle;connectable=0;fillColor=none;top=0;left=0;bottom=0;right=0;fontStyle=1;overflow=hidden;html=1;whiteSpace=wrap;" parent="UIV_hnuuXhI2ZquRKrRw-52" vertex="1">
          <mxGeometry width="60" height="30" as="geometry">
            <mxRectangle width="60" height="30" as="alternateBounds" />
          </mxGeometry>
        </mxCell>
        <mxCell id="UIV_hnuuXhI2ZquRKrRw-54" value="CODIGO_USUARIO" style="shape=partialRectangle;connectable=0;fillColor=none;top=0;left=0;bottom=0;right=0;align=left;spacingLeft=6;fontStyle=5;overflow=hidden;html=1;whiteSpace=wrap;" parent="UIV_hnuuXhI2ZquRKrRw-52" vertex="1">
          <mxGeometry x="60" width="140" height="30" as="geometry">
            <mxRectangle width="140" height="30" as="alternateBounds" />
          </mxGeometry>
        </mxCell>
        <mxCell id="UIV_hnuuXhI2ZquRKrRw-55" value="" style="shape=tableRow;horizontal=0;startSize=0;swimlaneHead=0;swimlaneBody=0;fillColor=none;collapsible=0;dropTarget=0;points=[[0,0.5],[1,0.5]];portConstraint=eastwest;top=0;left=0;right=0;bottom=1;html=1;" parent="UIV_hnuuXhI2ZquRKrRw-51" vertex="1">
          <mxGeometry y="60" width="200" height="30" as="geometry" />
        </mxCell>
        <mxCell id="UIV_hnuuXhI2ZquRKrRw-56" value="PK,FK2" style="shape=partialRectangle;connectable=0;fillColor=none;top=0;left=0;bottom=0;right=0;fontStyle=1;overflow=hidden;html=1;whiteSpace=wrap;" parent="UIV_hnuuXhI2ZquRKrRw-55" vertex="1">
          <mxGeometry width="60" height="30" as="geometry">
            <mxRectangle width="60" height="30" as="alternateBounds" />
          </mxGeometry>
        </mxCell>
        <mxCell id="UIV_hnuuXhI2ZquRKrRw-57" value="CODIGO_ROL" style="shape=partialRectangle;connectable=0;fillColor=none;top=0;left=0;bottom=0;right=0;align=left;spacingLeft=6;fontStyle=5;overflow=hidden;html=1;whiteSpace=wrap;" parent="UIV_hnuuXhI2ZquRKrRw-55" vertex="1">
          <mxGeometry x="60" width="140" height="30" as="geometry">
            <mxRectangle width="140" height="30" as="alternateBounds" />
          </mxGeometry>
        </mxCell>
        <mxCell id="UIV_hnuuXhI2ZquRKrRw-85" value="RolxMod" style="shape=table;startSize=30;container=1;collapsible=1;childLayout=tableLayout;fixedRows=1;rowLines=0;fontStyle=1;align=center;resizeLast=1;html=1;whiteSpace=wrap;" parent="1" vertex="1">
          <mxGeometry x="970" y="580" width="200" height="90" as="geometry" />
        </mxCell>
        <mxCell id="UIV_hnuuXhI2ZquRKrRw-86" value="" style="shape=tableRow;horizontal=0;startSize=0;swimlaneHead=0;swimlaneBody=0;fillColor=none;collapsible=0;dropTarget=0;points=[[0,0.5],[1,0.5]];portConstraint=eastwest;top=0;left=0;right=0;bottom=0;html=1;" parent="UIV_hnuuXhI2ZquRKrRw-85" vertex="1">
          <mxGeometry y="30" width="200" height="30" as="geometry" />
        </mxCell>
        <mxCell id="UIV_hnuuXhI2ZquRKrRw-87" value="PK,FK1" style="shape=partialRectangle;connectable=0;fillColor=none;top=0;left=0;bottom=0;right=0;fontStyle=1;overflow=hidden;html=1;whiteSpace=wrap;" parent="UIV_hnuuXhI2ZquRKrRw-86" vertex="1">
          <mxGeometry width="60" height="30" as="geometry">
            <mxRectangle width="60" height="30" as="alternateBounds" />
          </mxGeometry>
        </mxCell>
        <mxCell id="UIV_hnuuXhI2ZquRKrRw-88" value="CODIGO_ROL" style="shape=partialRectangle;connectable=0;fillColor=none;top=0;left=0;bottom=0;right=0;align=left;spacingLeft=6;fontStyle=5;overflow=hidden;html=1;whiteSpace=wrap;" parent="UIV_hnuuXhI2ZquRKrRw-86" vertex="1">
          <mxGeometry x="60" width="140" height="30" as="geometry">
            <mxRectangle width="140" height="30" as="alternateBounds" />
          </mxGeometry>
        </mxCell>
        <mxCell id="UIV_hnuuXhI2ZquRKrRw-89" value="" style="shape=tableRow;horizontal=0;startSize=0;swimlaneHead=0;swimlaneBody=0;fillColor=none;collapsible=0;dropTarget=0;points=[[0,0.5],[1,0.5]];portConstraint=eastwest;top=0;left=0;right=0;bottom=1;html=1;" parent="UIV_hnuuXhI2ZquRKrRw-85" vertex="1">
          <mxGeometry y="60" width="200" height="30" as="geometry" />
        </mxCell>
        <mxCell id="UIV_hnuuXhI2ZquRKrRw-90" value="PK,FK2" style="shape=partialRectangle;connectable=0;fillColor=none;top=0;left=0;bottom=0;right=0;fontStyle=1;overflow=hidden;html=1;whiteSpace=wrap;" parent="UIV_hnuuXhI2ZquRKrRw-89" vertex="1">
          <mxGeometry width="60" height="30" as="geometry">
            <mxRectangle width="60" height="30" as="alternateBounds" />
          </mxGeometry>
        </mxCell>
        <mxCell id="UIV_hnuuXhI2ZquRKrRw-91" value="CODIGO_MODULO" style="shape=partialRectangle;connectable=0;fillColor=none;top=0;left=0;bottom=0;right=0;align=left;spacingLeft=6;fontStyle=5;overflow=hidden;html=1;whiteSpace=wrap;" parent="UIV_hnuuXhI2ZquRKrRw-89" vertex="1">
          <mxGeometry x="60" width="140" height="30" as="geometry">
            <mxRectangle width="140" height="30" as="alternateBounds" />
          </mxGeometry>
        </mxCell>
        <mxCell id="UIV_hnuuXhI2ZquRKrRw-92" value="Modulos" style="shape=table;startSize=30;container=1;collapsible=1;childLayout=tableLayout;fixedRows=1;rowLines=0;fontStyle=1;align=center;resizeLast=1;html=1;" parent="1" vertex="1">
          <mxGeometry x="970" y="720" width="200" height="90" as="geometry" />
        </mxCell>
        <mxCell id="UIV_hnuuXhI2ZquRKrRw-93" value="" style="shape=tableRow;horizontal=0;startSize=0;swimlaneHead=0;swimlaneBody=0;fillColor=none;collapsible=0;dropTarget=0;points=[[0,0.5],[1,0.5]];portConstraint=eastwest;top=0;left=0;right=0;bottom=1;" parent="UIV_hnuuXhI2ZquRKrRw-92" vertex="1">
          <mxGeometry y="30" width="200" height="30" as="geometry" />
        </mxCell>
        <mxCell id="UIV_hnuuXhI2ZquRKrRw-94" value="PK" style="shape=partialRectangle;connectable=0;fillColor=none;top=0;left=0;bottom=0;right=0;fontStyle=1;overflow=hidden;whiteSpace=wrap;html=1;" parent="UIV_hnuuXhI2ZquRKrRw-93" vertex="1">
          <mxGeometry width="30" height="30" as="geometry">
            <mxRectangle width="30" height="30" as="alternateBounds" />
          </mxGeometry>
        </mxCell>
        <mxCell id="UIV_hnuuXhI2ZquRKrRw-95" value="CODIGO_MODULO" style="shape=partialRectangle;connectable=0;fillColor=none;top=0;left=0;bottom=0;right=0;align=left;spacingLeft=6;fontStyle=5;overflow=hidden;whiteSpace=wrap;html=1;" parent="UIV_hnuuXhI2ZquRKrRw-93" vertex="1">
          <mxGeometry x="30" width="170" height="30" as="geometry">
            <mxRectangle width="170" height="30" as="alternateBounds" />
          </mxGeometry>
        </mxCell>
        <mxCell id="UIV_hnuuXhI2ZquRKrRw-96" value="" style="shape=tableRow;horizontal=0;startSize=0;swimlaneHead=0;swimlaneBody=0;fillColor=none;collapsible=0;dropTarget=0;points=[[0,0.5],[1,0.5]];portConstraint=eastwest;top=0;left=0;right=0;bottom=0;" parent="UIV_hnuuXhI2ZquRKrRw-92" vertex="1">
          <mxGeometry y="60" width="200" height="30" as="geometry" />
        </mxCell>
        <mxCell id="UIV_hnuuXhI2ZquRKrRw-97" value="" style="shape=partialRectangle;connectable=0;fillColor=none;top=0;left=0;bottom=0;right=0;editable=1;overflow=hidden;whiteSpace=wrap;html=1;" parent="UIV_hnuuXhI2ZquRKrRw-96" vertex="1">
          <mxGeometry width="30" height="30" as="geometry">
            <mxRectangle width="30" height="30" as="alternateBounds" />
          </mxGeometry>
        </mxCell>
        <mxCell id="UIV_hnuuXhI2ZquRKrRw-98" value="DESCRIPCION" style="shape=partialRectangle;connectable=0;fillColor=none;top=0;left=0;bottom=0;right=0;align=left;spacingLeft=6;overflow=hidden;whiteSpace=wrap;html=1;" parent="UIV_hnuuXhI2ZquRKrRw-96" vertex="1">
          <mxGeometry x="30" width="170" height="30" as="geometry">
            <mxRectangle width="170" height="30" as="alternateBounds" />
          </mxGeometry>
        </mxCell>
        <mxCell id="UIV_hnuuXhI2ZquRKrRw-99" style="edgeStyle=orthogonalEdgeStyle;rounded=0;orthogonalLoop=1;jettySize=auto;html=1;exitX=0;exitY=0.5;exitDx=0;exitDy=0;entryX=0;entryY=0.5;entryDx=0;entryDy=0;" parent="1" source="kt7ekBlPG1MY4KIuGOSw-66" target="kt7ekBlPG1MY4KIuGOSw-82" edge="1">
          <mxGeometry relative="1" as="geometry">
            <Array as="points">
              <mxPoint x="460" y="235" />
              <mxPoint x="420" y="235" />
              <mxPoint x="420" y="435" />
            </Array>
          </mxGeometry>
        </mxCell>
        <mxCell id="UIV_hnuuXhI2ZquRKrRw-102" style="edgeStyle=orthogonalEdgeStyle;rounded=0;orthogonalLoop=1;jettySize=auto;html=1;exitX=0;exitY=0.5;exitDx=0;exitDy=0;entryX=1;entryY=0.5;entryDx=0;entryDy=0;" parent="1" source="kt7ekBlPG1MY4KIuGOSw-21" target="kt7ekBlPG1MY4KIuGOSw-43" edge="1">
          <mxGeometry relative="1" as="geometry" />
        </mxCell>
        <mxCell id="UIV_hnuuXhI2ZquRKrRw-104" style="edgeStyle=orthogonalEdgeStyle;rounded=0;orthogonalLoop=1;jettySize=auto;html=1;exitX=1;exitY=0.5;exitDx=0;exitDy=0;entryX=0;entryY=0.5;entryDx=0;entryDy=0;" parent="1" source="kt7ekBlPG1MY4KIuGOSw-21" target="UIV_hnuuXhI2ZquRKrRw-52" edge="1">
          <mxGeometry relative="1" as="geometry" />
        </mxCell>
        <mxCell id="UIV_hnuuXhI2ZquRKrRw-105" style="edgeStyle=orthogonalEdgeStyle;rounded=0;orthogonalLoop=1;jettySize=auto;html=1;exitX=0;exitY=0.5;exitDx=0;exitDy=0;entryX=1;entryY=0.5;entryDx=0;entryDy=0;" parent="1" source="kt7ekBlPG1MY4KIuGOSw-2" target="UIV_hnuuXhI2ZquRKrRw-55" edge="1">
          <mxGeometry relative="1" as="geometry" />
        </mxCell>
        <mxCell id="UIV_hnuuXhI2ZquRKrRw-106" style="edgeStyle=orthogonalEdgeStyle;rounded=0;orthogonalLoop=1;jettySize=auto;html=1;exitX=1;exitY=0.5;exitDx=0;exitDy=0;entryX=1;entryY=0.5;entryDx=0;entryDy=0;" parent="1" source="kt7ekBlPG1MY4KIuGOSw-2" target="UIV_hnuuXhI2ZquRKrRw-86" edge="1">
          <mxGeometry relative="1" as="geometry">
            <Array as="points">
              <mxPoint x="1210" y="305" />
              <mxPoint x="1210" y="625" />
            </Array>
          </mxGeometry>
        </mxCell>
        <mxCell id="UIV_hnuuXhI2ZquRKrRw-107" style="edgeStyle=orthogonalEdgeStyle;rounded=0;orthogonalLoop=1;jettySize=auto;html=1;exitX=1;exitY=0.5;exitDx=0;exitDy=0;entryX=1;entryY=0.5;entryDx=0;entryDy=0;" parent="1" source="UIV_hnuuXhI2ZquRKrRw-93" target="UIV_hnuuXhI2ZquRKrRw-89" edge="1">
          <mxGeometry relative="1" as="geometry" />
        </mxCell>
        <mxCell id="KcknUgmtsbozmTgqDKx0-1" style="edgeStyle=orthogonalEdgeStyle;rounded=0;orthogonalLoop=1;jettySize=auto;html=1;exitX=1;exitY=0.5;exitDx=0;exitDy=0;" parent="1" edge="1">
          <mxGeometry relative="1" as="geometry">
            <mxPoint x="890" y="315" as="sourcePoint" />
            <mxPoint x="900" y="520" as="targetPoint" />
            <Array as="points">
              <mxPoint x="890" y="295" />
              <mxPoint x="940" y="295" />
              <mxPoint x="940" y="520" />
              <mxPoint x="900" y="520" />
            </Array>
          </mxGeometry>
        </mxCell>
        <mxCell id="zXO0Hm7toAFiLiegIz7s-1" value="TOKEN_RECUPERACION" style="shape=partialRectangle;connectable=0;fillColor=none;top=0;left=0;bottom=0;right=0;align=left;spacingLeft=6;overflow=hidden;whiteSpace=wrap;html=1;perimeterSpacing=1;" parent="1" vertex="1">
          <mxGeometry x="740" y="600" width="160" height="30" as="geometry">
            <mxRectangle width="160" height="30" as="alternateBounds" />
          </mxGeometry>
        </mxCell>
        <mxCell id="zXO0Hm7toAFiLiegIz7s-2" value="" style="endArrow=none;html=1;rounded=0;" parent="1" edge="1">
          <mxGeometry width="50" height="50" relative="1" as="geometry">
            <mxPoint x="740" y="600" as="sourcePoint" />
            <mxPoint x="740" y="630" as="targetPoint" />
          </mxGeometry>
        </mxCell>
        <mxCell id="zXO0Hm7toAFiLiegIz7s-3" value="" style="endArrow=classic;html=1;rounded=0;entryX=1;entryY=0.5;entryDx=0;entryDy=0;exitX=0;exitY=0.5;exitDx=0;exitDy=0;" parent="1" source="kt7ekBlPG1MY4KIuGOSw-2" target="UIV_hnuuXhI2ZquRKrRw-16" edge="1">
          <mxGeometry width="50" height="50" relative="1" as="geometry">
            <mxPoint x="970" y="540" as="sourcePoint" />
            <mxPoint x="1020" y="490" as="targetPoint" />
            <Array as="points">
              <mxPoint x="960" y="305" />
              <mxPoint x="960" y="385" />
            </Array>
          </mxGeometry>
        </mxCell>
        <mxCell id="zXO0Hm7toAFiLiegIz7s-24" value="FK3" style="shape=partialRectangle;connectable=0;fillColor=none;top=0;left=0;bottom=0;right=0;fontStyle=1;overflow=hidden;html=1;whiteSpace=wrap;allowArrows=1;recursiveResize=1;expand=1;" parent="1" vertex="1">
          <mxGeometry x="450" y="696" width="60" height="40" as="geometry">
            <mxRectangle width="60" height="40" as="alternateBounds" />
          </mxGeometry>
        </mxCell>
        <mxCell id="zXO0Hm7toAFiLiegIz7s-26" value="" style="endArrow=classic;html=1;rounded=0;exitX=0;exitY=0.5;exitDx=0;exitDy=0;entryX=1.008;entryY=0.731;entryDx=0;entryDy=0;entryPerimeter=0;" parent="1" source="zXO0Hm7toAFiLiegIz7s-15" target="zXO0Hm7toAFiLiegIz7s-8" edge="1">
          <mxGeometry width="50" height="50" relative="1" as="geometry">
            <mxPoint x="760" y="650" as="sourcePoint" />
            <mxPoint x="810" y="600" as="targetPoint" />
            <Array as="points">
              <mxPoint x="950" y="1047" />
              <mxPoint x="950" y="1091" />
            </Array>
          </mxGeometry>
        </mxCell>
        <mxCell id="zXO0Hm7toAFiLiegIz7s-35" value="FK4" style="shape=partialRectangle;connectable=0;fillColor=none;top=0;left=0;bottom=0;right=0;fontStyle=1;overflow=hidden;html=1;whiteSpace=wrap;allowArrows=1;recursiveResize=1;expand=1;" parent="1" vertex="1">
          <mxGeometry x="450" y="784" width="60" height="40" as="geometry">
            <mxRectangle width="60" height="40" as="alternateBounds" />
          </mxGeometry>
        </mxCell>
        <mxCell id="zXO0Hm7toAFiLiegIz7s-37" value="" style="endArrow=classic;html=1;rounded=0;exitX=0;exitY=0.5;exitDx=0;exitDy=0;entryX=0;entryY=0.5;entryDx=0;entryDy=0;" parent="1" source="kt7ekBlPG1MY4KIuGOSw-76" target="6qR9zpXF2BAlvnuU101y-12" edge="1">
          <mxGeometry width="50" height="50" relative="1" as="geometry">
            <mxPoint x="620" y="560" as="sourcePoint" />
            <mxPoint x="670" y="510" as="targetPoint" />
            <Array as="points">
              <mxPoint x="430" y="405" />
              <mxPoint x="430" y="650" />
            </Array>
          </mxGeometry>
        </mxCell>
        <mxCell id="zXO0Hm7toAFiLiegIz7s-38" value="" style="group" parent="1" vertex="1" connectable="0">
          <mxGeometry x="990" y="1002" width="200" height="80" as="geometry" />
        </mxCell>
        <mxCell id="zXO0Hm7toAFiLiegIz7s-14" value="Turnos" style="shape=table;startSize=30;container=1;collapsible=1;childLayout=tableLayout;fixedRows=1;rowLines=0;fontStyle=1;align=center;resizeLast=1;html=1;whiteSpace=wrap;" parent="zXO0Hm7toAFiLiegIz7s-38" vertex="1">
          <mxGeometry width="200" height="80" as="geometry" />
        </mxCell>
        <mxCell id="zXO0Hm7toAFiLiegIz7s-15" value="" style="shape=tableRow;horizontal=0;startSize=0;swimlaneHead=0;swimlaneBody=0;fillColor=none;collapsible=0;dropTarget=0;points=[[0,0.5],[1,0.5]];portConstraint=eastwest;top=0;left=0;right=0;bottom=0;html=1;" parent="zXO0Hm7toAFiLiegIz7s-14" vertex="1">
          <mxGeometry y="30" width="200" height="30" as="geometry" />
        </mxCell>
        <mxCell id="zXO0Hm7toAFiLiegIz7s-16" value="PK" style="shape=partialRectangle;connectable=0;fillColor=none;top=0;left=0;bottom=0;right=0;fontStyle=1;overflow=hidden;html=1;whiteSpace=wrap;" parent="zXO0Hm7toAFiLiegIz7s-15" vertex="1">
          <mxGeometry width="60" height="30" as="geometry">
            <mxRectangle width="60" height="30" as="alternateBounds" />
          </mxGeometry>
        </mxCell>
        <mxCell id="zXO0Hm7toAFiLiegIz7s-17" value="CODIGO_TURNO" style="shape=partialRectangle;connectable=0;fillColor=none;top=0;left=0;bottom=0;right=0;align=left;spacingLeft=6;fontStyle=5;overflow=hidden;html=1;whiteSpace=wrap;" parent="zXO0Hm7toAFiLiegIz7s-15" vertex="1">
          <mxGeometry x="60" width="140" height="30" as="geometry">
            <mxRectangle width="140" height="30" as="alternateBounds" />
          </mxGeometry>
        </mxCell>
        <mxCell id="zXO0Hm7toAFiLiegIz7s-18" value="" style="shape=tableRow;horizontal=0;startSize=0;swimlaneHead=0;swimlaneBody=0;fillColor=none;collapsible=0;dropTarget=0;points=[[0,0.5],[1,0.5]];portConstraint=eastwest;top=0;left=0;right=0;bottom=1;html=1;" parent="zXO0Hm7toAFiLiegIz7s-14" vertex="1">
          <mxGeometry y="60" width="200" height="20" as="geometry" />
        </mxCell>
        <mxCell id="zXO0Hm7toAFiLiegIz7s-19" value="" style="shape=partialRectangle;connectable=0;fillColor=none;top=0;left=0;bottom=0;right=0;fontStyle=1;overflow=hidden;html=1;whiteSpace=wrap;" parent="zXO0Hm7toAFiLiegIz7s-18" vertex="1">
          <mxGeometry width="60" height="20" as="geometry">
            <mxRectangle width="60" height="20" as="alternateBounds" />
          </mxGeometry>
        </mxCell>
        <mxCell id="zXO0Hm7toAFiLiegIz7s-20" value="" style="shape=partialRectangle;connectable=0;fillColor=none;top=0;left=0;bottom=0;right=0;align=left;spacingLeft=6;fontStyle=5;overflow=hidden;html=1;whiteSpace=wrap;" parent="zXO0Hm7toAFiLiegIz7s-18" vertex="1">
          <mxGeometry x="60" width="140" height="20" as="geometry">
            <mxRectangle width="140" height="20" as="alternateBounds" />
          </mxGeometry>
        </mxCell>
        <mxCell id="zXO0Hm7toAFiLiegIz7s-21" value="&lt;span style=&quot;color: rgb(0, 0, 0); font-family: Helvetica; font-size: 12px; font-style: normal; font-variant-ligatures: normal; font-variant-caps: normal; font-weight: 400; letter-spacing: normal; orphans: 2; text-align: left; text-indent: 0px; text-transform: none; widows: 2; word-spacing: 0px; -webkit-text-stroke-width: 0px; white-space: normal; background-color: rgb(251, 251, 251); text-decoration-thickness: initial; text-decoration-style: initial; text-decoration-color: initial; display: inline !important; float: none;&quot;&gt;DESCRIPCION&lt;/span&gt;" style="text;whiteSpace=wrap;html=1;" parent="zXO0Hm7toAFiLiegIz7s-38" vertex="1">
          <mxGeometry x="65" y="53" width="130" height="20" as="geometry" />
        </mxCell>
        <mxCell id="zXO0Hm7toAFiLiegIz7s-40" value="" style="group" parent="1" vertex="1" connectable="0">
          <mxGeometry x="700" y="670" width="200" height="80" as="geometry" />
        </mxCell>
        <mxCell id="zXO0Hm7toAFiLiegIz7s-27" value="Comisiones" style="shape=table;startSize=30;container=1;collapsible=1;childLayout=tableLayout;fixedRows=1;rowLines=0;fontStyle=1;align=center;resizeLast=1;html=1;whiteSpace=wrap;" parent="zXO0Hm7toAFiLiegIz7s-40" vertex="1">
          <mxGeometry width="200" height="80" as="geometry" />
        </mxCell>
        <mxCell id="zXO0Hm7toAFiLiegIz7s-28" value="" style="shape=tableRow;horizontal=0;startSize=0;swimlaneHead=0;swimlaneBody=0;fillColor=none;collapsible=0;dropTarget=0;points=[[0,0.5],[1,0.5]];portConstraint=eastwest;top=0;left=0;right=0;bottom=0;html=1;" parent="zXO0Hm7toAFiLiegIz7s-27" vertex="1">
          <mxGeometry y="30" width="200" height="30" as="geometry" />
        </mxCell>
        <mxCell id="zXO0Hm7toAFiLiegIz7s-29" value="PK" style="shape=partialRectangle;connectable=0;fillColor=none;top=0;left=0;bottom=0;right=0;fontStyle=1;overflow=hidden;html=1;whiteSpace=wrap;" parent="zXO0Hm7toAFiLiegIz7s-28" vertex="1">
          <mxGeometry width="60" height="30" as="geometry">
            <mxRectangle width="60" height="30" as="alternateBounds" />
          </mxGeometry>
        </mxCell>
        <mxCell id="zXO0Hm7toAFiLiegIz7s-30" value="CODIGO_COMISIÓN" style="shape=partialRectangle;connectable=0;fillColor=none;top=0;left=0;bottom=0;right=0;align=left;spacingLeft=6;fontStyle=5;overflow=hidden;html=1;whiteSpace=wrap;" parent="zXO0Hm7toAFiLiegIz7s-28" vertex="1">
          <mxGeometry x="60" width="140" height="30" as="geometry">
            <mxRectangle width="140" height="30" as="alternateBounds" />
          </mxGeometry>
        </mxCell>
        <mxCell id="zXO0Hm7toAFiLiegIz7s-31" value="" style="shape=tableRow;horizontal=0;startSize=0;swimlaneHead=0;swimlaneBody=0;fillColor=none;collapsible=0;dropTarget=0;points=[[0,0.5],[1,0.5]];portConstraint=eastwest;top=0;left=0;right=0;bottom=1;html=1;" parent="zXO0Hm7toAFiLiegIz7s-27" vertex="1">
          <mxGeometry y="60" width="200" height="20" as="geometry" />
        </mxCell>
        <mxCell id="zXO0Hm7toAFiLiegIz7s-32" value="" style="shape=partialRectangle;connectable=0;fillColor=none;top=0;left=0;bottom=0;right=0;fontStyle=1;overflow=hidden;html=1;whiteSpace=wrap;" parent="zXO0Hm7toAFiLiegIz7s-31" vertex="1">
          <mxGeometry width="60" height="20" as="geometry">
            <mxRectangle width="60" height="20" as="alternateBounds" />
          </mxGeometry>
        </mxCell>
        <mxCell id="zXO0Hm7toAFiLiegIz7s-33" value="" style="shape=partialRectangle;connectable=0;fillColor=none;top=0;left=0;bottom=0;right=0;align=left;spacingLeft=6;fontStyle=5;overflow=hidden;html=1;whiteSpace=wrap;" parent="zXO0Hm7toAFiLiegIz7s-31" vertex="1">
          <mxGeometry x="60" width="140" height="20" as="geometry">
            <mxRectangle width="140" height="20" as="alternateBounds" />
          </mxGeometry>
        </mxCell>
        <mxCell id="zXO0Hm7toAFiLiegIz7s-34" value="&lt;span style=&quot;color: rgb(0, 0, 0); font-family: Helvetica; font-size: 12px; font-style: normal; font-variant-ligatures: normal; font-variant-caps: normal; font-weight: 400; letter-spacing: normal; orphans: 2; text-align: left; text-indent: 0px; text-transform: none; widows: 2; word-spacing: 0px; -webkit-text-stroke-width: 0px; white-space: normal; background-color: rgb(251, 251, 251); text-decoration-thickness: initial; text-decoration-style: initial; text-decoration-color: initial; display: inline !important; float: none;&quot;&gt;DESCRIPCION&lt;/span&gt;" style="text;whiteSpace=wrap;html=1;" parent="zXO0Hm7toAFiLiegIz7s-40" vertex="1">
          <mxGeometry x="65" y="53" width="130" height="20" as="geometry" />
        </mxCell>
        <mxCell id="zXO0Hm7toAFiLiegIz7s-41" value="" style="group" parent="1" vertex="1" connectable="0">
          <mxGeometry x="710" y="1002" width="200" height="103" as="geometry" />
        </mxCell>
        <mxCell id="zXO0Hm7toAFiLiegIz7s-4" value="Horarios" style="shape=table;startSize=30;container=1;collapsible=1;childLayout=tableLayout;fixedRows=1;rowLines=0;fontStyle=1;align=center;resizeLast=1;html=1;whiteSpace=wrap;" parent="zXO0Hm7toAFiLiegIz7s-41" vertex="1">
          <mxGeometry width="200" height="100" as="geometry" />
        </mxCell>
        <mxCell id="zXO0Hm7toAFiLiegIz7s-5" value="" style="shape=tableRow;horizontal=0;startSize=0;swimlaneHead=0;swimlaneBody=0;fillColor=none;collapsible=0;dropTarget=0;points=[[0,0.5],[1,0.5]];portConstraint=eastwest;top=0;left=0;right=0;bottom=0;html=1;" parent="zXO0Hm7toAFiLiegIz7s-4" vertex="1">
          <mxGeometry y="30" width="200" height="30" as="geometry" />
        </mxCell>
        <mxCell id="zXO0Hm7toAFiLiegIz7s-6" value="PK" style="shape=partialRectangle;connectable=0;fillColor=none;top=0;left=0;bottom=0;right=0;fontStyle=1;overflow=hidden;html=1;whiteSpace=wrap;" parent="zXO0Hm7toAFiLiegIz7s-5" vertex="1">
          <mxGeometry width="60" height="30" as="geometry">
            <mxRectangle width="60" height="30" as="alternateBounds" />
          </mxGeometry>
        </mxCell>
        <mxCell id="zXO0Hm7toAFiLiegIz7s-7" value="CODIGO_HORARIO" style="shape=partialRectangle;connectable=0;fillColor=none;top=0;left=0;bottom=0;right=0;align=left;spacingLeft=6;fontStyle=5;overflow=hidden;html=1;whiteSpace=wrap;" parent="zXO0Hm7toAFiLiegIz7s-5" vertex="1">
          <mxGeometry x="60" width="140" height="30" as="geometry">
            <mxRectangle width="140" height="30" as="alternateBounds" />
          </mxGeometry>
        </mxCell>
        <mxCell id="zXO0Hm7toAFiLiegIz7s-8" value="" style="shape=tableRow;horizontal=0;startSize=0;swimlaneHead=0;swimlaneBody=0;fillColor=none;collapsible=0;dropTarget=0;points=[[0,0.5],[1,0.5]];portConstraint=eastwest;top=0;left=0;right=0;bottom=1;html=1;" parent="zXO0Hm7toAFiLiegIz7s-4" vertex="1">
          <mxGeometry y="60" width="200" height="40" as="geometry" />
        </mxCell>
        <mxCell id="zXO0Hm7toAFiLiegIz7s-9" value="" style="shape=partialRectangle;connectable=0;fillColor=none;top=0;left=0;bottom=0;right=0;fontStyle=1;overflow=hidden;html=1;whiteSpace=wrap;" parent="zXO0Hm7toAFiLiegIz7s-8" vertex="1">
          <mxGeometry width="60" height="40" as="geometry">
            <mxRectangle width="60" height="40" as="alternateBounds" />
          </mxGeometry>
        </mxCell>
        <mxCell id="zXO0Hm7toAFiLiegIz7s-10" value="" style="shape=partialRectangle;connectable=0;fillColor=none;top=0;left=0;bottom=0;right=0;align=left;spacingLeft=6;fontStyle=5;overflow=hidden;html=1;whiteSpace=wrap;" parent="zXO0Hm7toAFiLiegIz7s-8" vertex="1">
          <mxGeometry x="60" width="140" height="40" as="geometry">
            <mxRectangle width="140" height="40" as="alternateBounds" />
          </mxGeometry>
        </mxCell>
        <mxCell id="zXO0Hm7toAFiLiegIz7s-11" value="&lt;span style=&quot;color: rgb(0, 0, 0); font-family: Helvetica; font-size: 12px; font-style: normal; font-variant-ligatures: normal; font-variant-caps: normal; font-weight: 400; letter-spacing: normal; orphans: 2; text-align: left; text-indent: 0px; text-transform: none; widows: 2; word-spacing: 0px; -webkit-text-stroke-width: 0px; white-space: normal; background-color: rgb(251, 251, 251); text-decoration-thickness: initial; text-decoration-style: initial; text-decoration-color: initial; display: inline !important; float: none;&quot;&gt;HORA&lt;/span&gt;" style="text;whiteSpace=wrap;html=1;" parent="zXO0Hm7toAFiLiegIz7s-41" vertex="1">
          <mxGeometry x="65" y="53" width="130" height="20" as="geometry" />
        </mxCell>
        <mxCell id="zXO0Hm7toAFiLiegIz7s-12" value="&lt;span style=&quot;color: rgb(0, 0, 0); font-family: Helvetica; font-size: 12px; font-style: normal; font-variant-ligatures: normal; font-variant-caps: normal; letter-spacing: normal; orphans: 2; text-align: left; text-indent: 0px; text-transform: none; widows: 2; word-spacing: 0px; -webkit-text-stroke-width: 0px; white-space: normal; background-color: rgb(251, 251, 251); text-decoration-thickness: initial; text-decoration-style: initial; text-decoration-color: initial; float: none; display: inline !important;&quot;&gt;&lt;u style=&quot;&quot;&gt;&lt;b&gt;CODIGO_TURNO&lt;/b&gt;&lt;/u&gt;&lt;/span&gt;" style="text;whiteSpace=wrap;html=1;" parent="zXO0Hm7toAFiLiegIz7s-41" vertex="1">
          <mxGeometry x="64" y="74" width="130" height="20" as="geometry" />
        </mxCell>
        <mxCell id="zXO0Hm7toAFiLiegIz7s-13" value="FK" style="shape=partialRectangle;connectable=0;fillColor=none;top=0;left=0;bottom=0;right=0;fontStyle=1;overflow=hidden;html=1;whiteSpace=wrap;" parent="zXO0Hm7toAFiLiegIz7s-41" vertex="1">
          <mxGeometry y="73" width="60" height="30" as="geometry">
            <mxRectangle width="60" height="30" as="alternateBounds" />
          </mxGeometry>
        </mxCell>
        <mxCell id="zXO0Hm7toAFiLiegIz7s-44" value="" style="endArrow=classic;html=1;rounded=0;exitX=0;exitY=0.5;exitDx=0;exitDy=0;" parent="1" source="zXO0Hm7toAFiLiegIz7s-28" target="kt7ekBlPG1MY4KIuGOSw-55" edge="1">
          <mxGeometry width="50" height="50" relative="1" as="geometry">
            <mxPoint x="920" y="700" as="sourcePoint" />
            <mxPoint x="970" y="650" as="targetPoint" />
          </mxGeometry>
        </mxCell>
        <mxCell id="zXO0Hm7toAFiLiegIz7s-43" value="" style="endArrow=classic;html=1;rounded=0;exitX=0;exitY=0.5;exitDx=0;exitDy=0;entryX=1;entryY=0.5;entryDx=0;entryDy=0;" parent="1" source="zXO0Hm7toAFiLiegIz7s-5" target="fN0fKKqA2JxCGqHEbq-L-1" edge="1">
          <mxGeometry width="50" height="50" relative="1" as="geometry">
            <mxPoint x="970" y="650" as="sourcePoint" />
            <mxPoint x="920" y="700" as="targetPoint" />
            <Array as="points">
              <mxPoint x="670" y="1047" />
              <mxPoint x="670" y="841" />
              <mxPoint x="670" y="805" />
            </Array>
          </mxGeometry>
        </mxCell>
        <mxCell id="aSuyNTh31EjNNvPfUXPA-55" value="&lt;span style=&quot;text-wrap-mode: nowrap;&quot;&gt;Personas_carreras_materias&lt;/span&gt;" style="shape=table;startSize=30;container=1;collapsible=1;childLayout=tableLayout;fixedRows=1;rowLines=0;fontStyle=1;align=center;resizeLast=1;html=1;whiteSpace=wrap;columnLines=1;swimlaneHead=1;swimlaneBody=1;horizontal=1;top=1;bottom=1;left=1;right=1;connectable=1;allowArrows=1;dropTarget=1;strokeColor=default;" vertex="1" parent="1">
          <mxGeometry x="700" y="780" width="200" height="200" as="geometry">
            <mxRectangle x="450" y="530" width="80" height="30" as="alternateBounds" />
          </mxGeometry>
        </mxCell>
        <mxCell id="aSuyNTh31EjNNvPfUXPA-56" value="" style="shape=tableRow;horizontal=0;startSize=0;swimlaneHead=0;swimlaneBody=0;fillColor=none;collapsible=0;dropTarget=0;points=[[0,0.5],[1,0.5]];portConstraint=eastwest;top=0;left=0;right=0;bottom=1;html=1;" vertex="1" parent="aSuyNTh31EjNNvPfUXPA-55">
          <mxGeometry y="30" width="200" height="40" as="geometry" />
        </mxCell>
        <mxCell id="aSuyNTh31EjNNvPfUXPA-57" value="PK" style="shape=partialRectangle;connectable=0;fillColor=none;top=0;left=0;bottom=0;right=0;fontStyle=1;overflow=hidden;html=1;whiteSpace=wrap;" vertex="1" parent="aSuyNTh31EjNNvPfUXPA-56">
          <mxGeometry width="60" height="40" as="geometry">
            <mxRectangle width="60" height="40" as="alternateBounds" />
          </mxGeometry>
        </mxCell>
        <mxCell id="aSuyNTh31EjNNvPfUXPA-58" value="DNI_PERSONA" style="shape=partialRectangle;connectable=0;fillColor=none;top=0;left=0;bottom=0;right=0;align=left;spacingLeft=6;fontStyle=5;overflow=hidden;html=1;whiteSpace=wrap;" vertex="1" parent="aSuyNTh31EjNNvPfUXPA-56">
          <mxGeometry x="60" width="140" height="40" as="geometry">
            <mxRectangle width="140" height="40" as="alternateBounds" />
          </mxGeometry>
        </mxCell>
        <mxCell id="aSuyNTh31EjNNvPfUXPA-59" value="" style="shape=tableRow;horizontal=0;startSize=0;swimlaneHead=0;swimlaneBody=0;fillColor=none;collapsible=0;dropTarget=0;points=[[0,0.5],[1,0.5]];portConstraint=eastwest;top=0;left=0;right=0;bottom=0;html=1;" vertex="1" parent="aSuyNTh31EjNNvPfUXPA-55">
          <mxGeometry y="70" width="200" height="30" as="geometry" />
        </mxCell>
        <mxCell id="aSuyNTh31EjNNvPfUXPA-60" value="FK1" style="shape=partialRectangle;connectable=0;fillColor=none;top=0;left=0;bottom=0;right=0;fontStyle=1;overflow=hidden;html=1;whiteSpace=wrap;" vertex="1" parent="aSuyNTh31EjNNvPfUXPA-59">
          <mxGeometry width="60" height="30" as="geometry">
            <mxRectangle width="60" height="30" as="alternateBounds" />
          </mxGeometry>
        </mxCell>
        <mxCell id="aSuyNTh31EjNNvPfUXPA-61" value="&lt;b&gt;&lt;u&gt;ID_CARRERA&lt;/u&gt;&lt;/b&gt;" style="shape=partialRectangle;connectable=0;fillColor=none;top=0;left=0;bottom=0;right=0;align=left;spacingLeft=6;fontStyle=1;overflow=hidden;html=1;whiteSpace=wrap;" vertex="1" parent="aSuyNTh31EjNNvPfUXPA-59">
          <mxGeometry x="60" width="140" height="30" as="geometry">
            <mxRectangle width="140" height="30" as="alternateBounds" />
          </mxGeometry>
        </mxCell>
        <mxCell id="aSuyNTh31EjNNvPfUXPA-62" value="" style="shape=tableRow;horizontal=0;startSize=0;swimlaneHead=0;swimlaneBody=0;fillColor=none;collapsible=0;dropTarget=0;points=[[0,0.5],[1,0.5]];portConstraint=eastwest;top=0;left=0;right=0;bottom=0;html=1;swimlaneLine=1;strokeColor=default;" vertex="1" parent="aSuyNTh31EjNNvPfUXPA-55">
          <mxGeometry y="100" width="200" height="40" as="geometry" />
        </mxCell>
        <mxCell id="aSuyNTh31EjNNvPfUXPA-63" value="FK2" style="shape=partialRectangle;connectable=0;fillColor=none;top=0;left=0;bottom=0;right=0;fontStyle=1;overflow=hidden;html=1;whiteSpace=wrap;allowArrows=1;recursiveResize=1;expand=1;" vertex="1" parent="aSuyNTh31EjNNvPfUXPA-62">
          <mxGeometry width="60" height="40" as="geometry">
            <mxRectangle width="60" height="40" as="alternateBounds" />
          </mxGeometry>
        </mxCell>
        <mxCell id="aSuyNTh31EjNNvPfUXPA-64" value="&lt;b&gt;&lt;u&gt;CODIGO_MATERIA&lt;/u&gt;&lt;/b&gt;" style="shape=partialRectangle;connectable=0;fillColor=none;top=0;left=0;bottom=0;right=0;align=left;spacingLeft=6;fontStyle=1;overflow=hidden;html=1;whiteSpace=wrap;strokeColor=default;" vertex="1" parent="aSuyNTh31EjNNvPfUXPA-62">
          <mxGeometry x="60" width="140" height="40" as="geometry">
            <mxRectangle width="140" height="40" as="alternateBounds" />
          </mxGeometry>
        </mxCell>
        <mxCell id="aSuyNTh31EjNNvPfUXPA-65" value="" style="shape=tableRow;horizontal=0;startSize=0;swimlaneHead=0;swimlaneBody=0;fillColor=none;collapsible=0;dropTarget=0;points=[[0,0.5],[1,0.5]];portConstraint=eastwest;top=0;left=0;right=0;bottom=0;html=1;" vertex="1" parent="aSuyNTh31EjNNvPfUXPA-55">
          <mxGeometry y="140" width="200" height="30" as="geometry" />
        </mxCell>
        <mxCell id="aSuyNTh31EjNNvPfUXPA-66" value="" style="shape=partialRectangle;connectable=0;fillColor=none;top=0;left=0;bottom=0;right=0;editable=1;overflow=hidden;html=1;whiteSpace=wrap;" vertex="1" parent="aSuyNTh31EjNNvPfUXPA-65">
          <mxGeometry width="60" height="30" as="geometry">
            <mxRectangle width="60" height="30" as="alternateBounds" />
          </mxGeometry>
        </mxCell>
        <mxCell id="aSuyNTh31EjNNvPfUXPA-67" value="&lt;span style=&quot;font-weight: 700; text-decoration-line: underline;&quot;&gt;CODIGO_COMISION&lt;/span&gt;" style="shape=partialRectangle;connectable=0;fillColor=none;top=0;left=0;bottom=0;right=0;align=left;spacingLeft=6;overflow=hidden;html=1;whiteSpace=wrap;" vertex="1" parent="aSuyNTh31EjNNvPfUXPA-65">
          <mxGeometry x="60" width="140" height="30" as="geometry">
            <mxRectangle width="140" height="30" as="alternateBounds" />
          </mxGeometry>
        </mxCell>
        <mxCell id="aSuyNTh31EjNNvPfUXPA-68" value="" style="shape=tableRow;horizontal=0;startSize=0;swimlaneHead=0;swimlaneBody=0;fillColor=none;collapsible=0;dropTarget=0;points=[[0,0.5],[1,0.5]];portConstraint=eastwest;top=0;left=0;right=0;bottom=0;html=1;" vertex="1" parent="aSuyNTh31EjNNvPfUXPA-55">
          <mxGeometry y="170" width="200" height="30" as="geometry" />
        </mxCell>
        <mxCell id="aSuyNTh31EjNNvPfUXPA-69" value="" style="shape=partialRectangle;connectable=0;fillColor=none;top=0;left=0;bottom=0;right=0;editable=1;overflow=hidden;html=1;whiteSpace=wrap;" vertex="1" parent="aSuyNTh31EjNNvPfUXPA-68">
          <mxGeometry width="60" height="30" as="geometry">
            <mxRectangle width="60" height="30" as="alternateBounds" />
          </mxGeometry>
        </mxCell>
        <mxCell id="aSuyNTh31EjNNvPfUXPA-70" value="&lt;span style=&quot;font-weight: 700; text-decoration-line: underline;&quot;&gt;CODIGO_HORARIO&lt;/span&gt;" style="shape=partialRectangle;connectable=0;fillColor=none;top=0;left=0;bottom=0;right=0;align=left;spacingLeft=6;overflow=hidden;html=1;whiteSpace=wrap;" vertex="1" parent="aSuyNTh31EjNNvPfUXPA-68">
          <mxGeometry x="60" width="140" height="30" as="geometry">
            <mxRectangle width="140" height="30" as="alternateBounds" />
          </mxGeometry>
        </mxCell>
        <mxCell id="aSuyNTh31EjNNvPfUXPA-86" value="FK3" style="shape=partialRectangle;connectable=0;fillColor=none;top=0;left=0;bottom=0;right=0;fontStyle=1;overflow=hidden;html=1;whiteSpace=wrap;allowArrows=1;recursiveResize=1;expand=1;" vertex="1" parent="1">
          <mxGeometry x="700" y="915" width="60" height="40" as="geometry">
            <mxRectangle width="60" height="40" as="alternateBounds" />
          </mxGeometry>
        </mxCell>
        <mxCell id="aSuyNTh31EjNNvPfUXPA-87" value="FK4" style="shape=partialRectangle;connectable=0;fillColor=none;top=0;left=0;bottom=0;right=0;fontStyle=1;overflow=hidden;html=1;whiteSpace=wrap;allowArrows=1;recursiveResize=1;expand=1;" vertex="1" parent="1">
          <mxGeometry x="701" y="945" width="60" height="40" as="geometry">
            <mxRectangle width="60" height="40" as="alternateBounds" />
          </mxGeometry>
        </mxCell>
        <mxCell id="aSuyNTh31EjNNvPfUXPA-90" style="edgeStyle=orthogonalEdgeStyle;rounded=0;orthogonalLoop=1;jettySize=auto;html=1;exitX=1;exitY=0.5;exitDx=0;exitDy=0;entryX=1;entryY=0.5;entryDx=0;entryDy=0;" edge="1" parent="1" source="zXO0Hm7toAFiLiegIz7s-5" target="aSuyNTh31EjNNvPfUXPA-68">
          <mxGeometry relative="1" as="geometry" />
        </mxCell>
        <mxCell id="aSuyNTh31EjNNvPfUXPA-92" style="edgeStyle=orthogonalEdgeStyle;rounded=0;orthogonalLoop=1;jettySize=auto;html=1;exitX=1;exitY=0.5;exitDx=0;exitDy=0;entryX=1;entryY=0.5;entryDx=0;entryDy=0;" edge="1" parent="1" source="zXO0Hm7toAFiLiegIz7s-28" target="aSuyNTh31EjNNvPfUXPA-65">
          <mxGeometry relative="1" as="geometry" />
        </mxCell>
        <mxCell id="aSuyNTh31EjNNvPfUXPA-93" style="edgeStyle=orthogonalEdgeStyle;rounded=0;orthogonalLoop=1;jettySize=auto;html=1;exitX=1;exitY=0.5;exitDx=0;exitDy=0;entryX=1;entryY=0.5;entryDx=0;entryDy=0;" edge="1" parent="1" source="UIV_hnuuXhI2ZquRKrRw-4" target="aSuyNTh31EjNNvPfUXPA-56">
          <mxGeometry relative="1" as="geometry">
            <Array as="points">
              <mxPoint x="940" y="295" />
              <mxPoint x="940" y="830" />
            </Array>
          </mxGeometry>
        </mxCell>
        <mxCell id="aSuyNTh31EjNNvPfUXPA-94" style="edgeStyle=orthogonalEdgeStyle;rounded=0;orthogonalLoop=1;jettySize=auto;html=1;exitX=0;exitY=0.5;exitDx=0;exitDy=0;entryX=0;entryY=0.5;entryDx=0;entryDy=0;" edge="1" parent="1" source="kt7ekBlPG1MY4KIuGOSw-76" target="aSuyNTh31EjNNvPfUXPA-62">
          <mxGeometry relative="1" as="geometry">
            <Array as="points">
              <mxPoint x="430" y="405" />
              <mxPoint x="430" y="900" />
            </Array>
          </mxGeometry>
        </mxCell>
        <mxCell id="aSuyNTh31EjNNvPfUXPA-95" style="edgeStyle=orthogonalEdgeStyle;rounded=0;orthogonalLoop=1;jettySize=auto;html=1;exitX=1;exitY=0.5;exitDx=0;exitDy=0;entryX=0;entryY=0.5;entryDx=0;entryDy=0;" edge="1" parent="1" source="kt7ekBlPG1MY4KIuGOSw-66" target="aSuyNTh31EjNNvPfUXPA-59">
          <mxGeometry relative="1" as="geometry" />
        </mxCell>
      </root>
    </mxGraphModel>
  </diagram>
</mxfile>
